<?xml version="1.0" encoding="utf-8"?>
<!-- Generator: Adobe Illustrator 23.0.3, SVG Export Plug-In . SVG Version: 6.00 Build 0)  -->
<svg version="1.1" id="Ebene_1" xmlns="http://www.w3.org/2000/svg" xmlns:xlink="http://www.w3.org/1999/xlink" x="0px" y="0px"
	 viewBox="0 0 52.2 49.8" style="enable-background:new 0 0 52.2 49.8;" xml:space="preserve">
<style type="text/css">
	.st0{fill:#F5A714;}
	.st1{fill:#FFFFFF;}
</style>
<g id="partlysunny">
	<g>
		<path class="st0" d="M36.5,5.9c-0.7,0-1.2-0.6-1.2-1.2V1.2c0-0.7,0.6-1.2,1.2-1.2c0.7,0,1.2,0.6,1.2,1.2v3.4
			C37.7,5.3,37.1,5.9,36.5,5.9z"/>
	</g>
	<g>
		<path class="st0" d="M51,17h-3.4c-0.7,0-1.2-0.5-1.2-1.2c0-0.7,0.5-1.2,1.2-1.2H51c0.7,0,1.2,0.5,1.2,1.2C52.2,16.5,51.7,17,51,17
			z"/>
	</g>
	<g>
		<path class="st0" d="M44.7,9.1c-0.3,0-0.6-0.1-0.9-0.4c-0.5-0.5-0.5-1.3,0-1.7l2.4-2.4c0.5-0.5,1.3-0.5,1.7,0
			c0.5,0.5,0.5,1.3,0,1.7l-2.4,2.4C45.3,8.9,45,9.1,44.7,9.1z"/>
	</g>
	<g>
		<path class="st0" d="M47.1,27.4c-0.3,0-0.6-0.1-0.9-0.4l-2.4-2.4c-0.5-0.5-0.5-1.3,0-1.7c0.5-0.5,1.3-0.5,1.7,0l2.4,2.4
			c0.5,0.5,0.5,1.3,0,1.7C47.7,27.2,47.4,27.4,47.1,27.4z"/>
	</g>
	<g>
		<path class="st0" d="M28.6,9.2c-0.3,0-0.6-0.1-0.9-0.4l-2.4-2.4c-0.5-0.5-0.5-1.3,0-1.7c0.5-0.5,1.3-0.5,1.7,0l2.4,2.4
			c0.5,0.5,0.5,1.3,0,1.7C29.3,9.1,28.9,9.2,28.6,9.2z"/>
	</g>
	<g>
		<path class="st1" d="M38.9,49.8H9.3c-5.1,0-9.3-4.2-9.3-9.3c0-4,2.6-7.6,6.3-8.8c0-0.1,0-0.1,0-0.2c0-4.7,3.8-8.5,8.5-8.5
			c1.1,0,2.2,0.2,3.2,0.7c2.2-3.4,6-5.4,10.1-5.4c6.7,0,12.2,5.5,12.2,12.2c0,0.7-0.1,1.4-0.2,2.1c4.2,0.6,7.5,4.2,7.5,8.6
			C47.6,45.9,43.7,49.8,38.9,49.8L38.9,49.8z M14.8,25.6c-3.2,0-5.8,2.6-5.8,5.8c0,0.3,0,0.6,0.1,1l0.2,1.3L8,33.9
			c-3.1,0.6-5.3,3.4-5.3,6.5c0,3.7,3,6.7,6.7,6.7h29.6l0,0c3.3,0,6-2.7,6-6s-2.7-6-6-6c-0.1,0-0.2,0-0.3,0l-2,0.1l0.6-1.9
			c0.3-0.9,0.5-1.9,0.5-2.9c0-5.3-4.3-9.5-9.5-9.5c-3.5,0-6.8,2-8.4,5.1L19,27.2l-1.2-0.7C16.9,25.9,15.9,25.6,14.8,25.6z"/>
	</g>
	<g>
		<path class="st0" d="M38,7.9c-4.2-0.8-8.2,2-8.9,6.2C29,14.5,29,14.8,29,15.2c-0.1,0.5,0.3,1,0.9,1.1c1.1,0.1,1-1,1.2-1.7
			c0.6-3.1,3.5-5.1,6.6-4.6c3.1,0.6,5.1,3.5,4.6,6.6c-0.1,0.7-0.3,1.4-0.7,2c-0.5,0.7-1.3,1.3-2,1.8c-0.6,0.4-0.3,1.3,0.4,1.4
			c0.8,0.2,1.5-0.4,2.1-1c0.7-0.6,1.3-1.5,1.7-2.4c0.2-0.5,0.4-1,0.5-1.5C44.9,12.7,42.2,8.7,38,7.9z"/>
	</g>
</g>
</svg>
